<svg preserveAspectRatio="none" width="100%" height="100%" overflow="visible" style="display: block;" viewBox="0 0 13.5832 15.5" fill="none" xmlns="http://www.w3.org/2000/svg">
<g id="Bookmark">
<path id="Path_33968" fill-rule="evenodd" clip-rule="evenodd" d="M6.49545 12.2967L1.87064 14.6633C1.50138 14.8426 1.04647 14.7157 0.842901 14.3767V14.3767C0.784006 14.2716 0.752232 14.1552 0.750119 14.0367V3.55C0.750119 1.55 2.21322 0.75 4.31865 0.75H9.26463C11.3058 0.75 12.8332 1.49667 12.8332 3.41667V14.0367C12.8332 14.2259 12.7527 14.4073 12.6095 14.5411C12.4663 14.6748 12.272 14.75 12.0695 14.75C11.9403 14.7481 11.8133 14.7184 11.6984 14.6633L7.045 12.2967C6.87353 12.2101 6.66692 12.2101 6.49545 12.2967Z" fill="var(--fill-0, #EB5757)" stroke="var(--stroke-0, #EB5757)" stroke-width="1.5" stroke-linecap="round" stroke-linejoin="round"/>
</g>
</svg>
