<svg preserveAspectRatio="none" width="100%" height="100%" overflow="visible" style="display: block;" viewBox="0 0 17.7335 17.7335" fill="none" xmlns="http://www.w3.org/2000/svg">
<g id="1381174" clip-path="url(#clip0_13_479)">
<path id="Vector" d="M5.92775 3.32781V12.1813C5.36411 11.6684 4.61551 11.3555 3.79535 11.3555C2.04638 11.3555 0.623475 12.7784 0.623475 14.5273C0.623475 16.2763 2.04638 17.6992 3.79535 17.6992C5.54215 17.6992 6.96344 16.2798 6.96709 14.534H6.96723V8.20752L16.0762 5.47022V10.0474C15.5125 9.53464 14.7639 9.22157 13.9438 9.22157C12.1948 9.22157 10.7719 10.6445 10.7719 12.3934C10.7719 14.1424 12.1948 15.5653 13.9438 15.5653C15.6868 15.5653 17.1058 14.152 17.1154 12.4112H17.1156V-0.0342925L5.92775 3.32781Z" fill="var(--fill-0, white)"/>
</g>
<defs>
<clipPath id="clip0_13_479">
<rect width="17.7335" height="17.7335" fill="white"/>
</clipPath>
</defs>
</svg>
