<svg preserveAspectRatio="none" width="100%" height="100%" overflow="visible" style="display: block;" viewBox="0 0 17.7296 17.7336" fill="none" xmlns="http://www.w3.org/2000/svg">
<g id="Group">
<path id="Vector" d="M12.1797 11.0157C13.8691 10.9858 14.2409 8.66171 12.6467 8.10822L10.806 10.1045C11.0357 10.6453 11.5772 11.0157 12.1797 11.0157Z" fill="var(--fill-0, white)"/>
<path id="Vector_2" d="M17.6315 7.99961C17.3948 6.57983 16.7297 5.48399 15.6969 4.79974C15.2158 5.32189 13.8904 6.75878 13.3902 7.3015C14.195 7.73769 14.7102 8.58234 14.7102 9.5247C14.7158 11.7088 12.0802 12.8687 10.4741 11.3938C10.3209 11.7327 10.1061 12.0445 9.83554 12.3151C8.76308 13.4778 5.44109 13.7588 4.02305 13.7175C3.98162 12.2959 4.26384 8.97554 5.42554 7.90502C6.01829 7.31259 6.79158 7.00874 7.57006 6.99385C8.422 6.20563 9.60341 5.11239 10.4519 4.32718C9.27334 4.63774 7.54709 5.45995 7.02058 4.68368C6.77419 4.10216 7.89438 2.75088 7.01054 1.61686C6.2862 0.707379 4.6651 0.878216 3.749 1.52436C-0.711401 4.60396 -1.30782 11.3701 2.58606 15.1342C7.35287 19.9376 15.6681 17.7615 17.495 11.2521C17.5942 10.8424 17.8781 9.49941 17.6315 7.99961V7.99961Z" fill="var(--fill-0, white)"/>
<path id="Vector_3" d="M9.83554 7.90494C10.1252 8.19457 10.3507 8.53098 10.5052 8.89718C11.0952 8.25822 14.2103 4.87858 14.7275 4.31808L17.4932 1.31847C17.7954 0.990724 17.8033 0.505686 17.5116 0.213624C17.2192 -0.0784378 16.7335 -0.0701229 16.4057 0.233026L12.3609 3.97648C11.4826 4.78902 9.7357 6.40627 8.83949 7.23558C9.20188 7.38733 9.54106 7.61045 9.83554 7.90494V7.90494Z" fill="var(--fill-0, white)"/>
<path id="Vector_4" d="M8.54579 8.24277C7.75667 7.85876 6.80039 8.0014 6.16045 8.63912C5.49948 9.22352 5.1242 11.4476 5.08609 12.6538C6.29584 12.6145 8.51454 12.2414 9.10047 11.5795C9.49335 11.1866 9.70954 10.6645 9.70954 10.1095C9.70943 9.55369 9.493 9.03155 9.10047 8.63947V8.63912C8.93417 8.47247 8.74639 8.34048 8.54579 8.24277V8.24277Z" fill="var(--fill-0, white)"/>
</g>
</svg>
