<svg width="18" height="18" viewBox="0 0 18 18" fill="none" xmlns="http://www.w3.org/2000/svg">
<g clip-path="url(#clip0_1_2213)">
<path d="M17.2195 15.031L10.2873 8.09878L2.18815 -0.000366211H1.55519L1.42595 0.32804C1.08484 1.19486 0.93909 2.08143 1.00452 2.89179C1.07911 3.81551 1.43002 4.61524 2.0194 5.20462L8.34202 11.5272L9.17597 10.6933L15.0212 17.2294C15.6027 17.8109 16.6035 17.8454 17.2195 17.2294C17.8256 16.6233 17.8256 15.6371 17.2195 15.031Z" fill="white"/>
<path d="M5.41182 10.0637L0.459973 15.0156C-0.146082 15.6216 -0.146082 16.6078 0.459973 17.2139C1.03571 17.7896 2.0317 17.8404 2.65827 17.2139L7.61015 12.262L5.41182 10.0637Z" fill="white"/>
<path d="M16.9283 2.94295L14.1193 5.75189L13.3865 5.01911L16.1955 2.21013L15.4627 1.47736L12.6538 4.2863L11.921 3.55352L14.73 0.744582L13.9972 0.0118408L10.3334 3.67572C9.88513 4.12394 9.6175 4.71909 9.57965 5.35159C9.57009 5.51184 9.53376 5.66947 9.47351 5.81939L11.8536 8.19945C12.0035 8.13912 12.1612 8.10283 12.3214 8.09327C12.9539 8.05553 13.549 7.78782 13.9972 7.3396L17.6611 3.67576L16.9283 2.94295Z" fill="white"/>
</g>
<defs>
<clipPath id="clip0_1_2213">
<rect width="17.6789" height="17.6789" fill="white"/>
</clipPath>
</defs>
</svg>
