<svg width="18" height="18" viewBox="0 0 18 18" fill="none" xmlns="http://www.w3.org/2000/svg">
<g clip-path="url(#clip0_1_2191)">
<path d="M5.92775 3.3278V12.1813C5.3641 11.6684 4.61551 11.3554 3.79535 11.3554C2.04638 11.3554 0.623474 12.7783 0.623474 14.5273C0.623474 16.2763 2.04638 17.6992 3.79535 17.6992C5.54215 17.6992 6.96344 16.2798 6.96709 14.5339H6.96722V8.20751L16.0761 5.47021V10.0474C15.5125 9.53463 14.7639 9.22156 13.9438 9.22156C12.1948 9.22156 10.7719 10.6445 10.7719 12.3934C10.7719 14.1424 12.1948 15.5653 13.9438 15.5653C15.6868 15.5653 17.1058 14.152 17.1154 12.4112H17.1156V-0.0343018L5.92775 3.3278Z" fill="white"/>
</g>
<defs>
<clipPath id="clip0_1_2191">
<rect width="17.7335" height="17.7335" fill="white"/>
</clipPath>
</defs>
</svg>
