<svg width="18" height="18" viewBox="0 0 18 18" fill="none" xmlns="http://www.w3.org/2000/svg">
<g clip-path="url(#clip0_1_2198)">
<path d="M8.31148 2.37378C8.19577 1.6118 7.96177 0.840464 7.62092 0.086792C5.8509 0.335684 4.24879 1.10699 2.97534 2.24006L7.37476 6.63951C8.23432 5.54638 8.56654 4.0533 8.31148 2.37378Z" fill="white"/>
<path d="M7.37938 8.1123C6.32867 8.97986 4.97684 9.4331 3.45804 9.43314C3.05564 9.43314 2.64167 9.40134 2.21836 9.33709C1.47882 9.22477 0.733353 9.01408 0.00177877 8.71348C0.000982153 8.76387 -9.15527e-05 8.81423 -9.15527e-05 8.86483C-9.15527e-05 11.1264 0.847062 13.1897 2.2407 14.756L8.13191 8.86483L7.37938 8.1123Z" fill="white"/>
<path d="M6.64019 7.37269L2.24073 2.97327C1.10766 4.24672 0.336355 5.84879 0.0874634 7.61881C0.84117 7.95966 1.61254 8.19373 2.37442 8.30944C4.05404 8.56454 5.54708 8.23224 6.64019 7.37269Z" fill="white"/>
<path d="M15.3589 9.42052C13.6794 9.1654 12.1863 9.49769 11.0932 10.3572L15.4926 14.7567C16.6257 13.4832 17.397 11.8811 17.6459 10.1111C16.8923 9.77031 16.1209 9.53627 15.3589 9.42052Z" fill="white"/>
<path d="M9.61891 10.3531L8.86656 9.60071L2.97534 15.4919C4.54167 16.8856 6.60502 17.7327 8.86656 17.7327C8.91716 17.7327 8.96752 17.7316 9.01791 17.7308C8.71734 16.9992 8.50662 16.2538 8.3943 15.5142C8.08743 13.4932 8.52151 11.6821 9.61891 10.3531Z" fill="white"/>
<path d="M8.11423 7.37818L8.86658 8.13054L14.7578 2.23932C13.1915 0.845654 11.1281 -0.00146484 8.86658 -0.00146484C8.81598 -0.00146484 8.76562 -0.000391138 8.71523 0.000440118C9.01579 0.73198 9.22652 1.47737 9.33884 2.21702C9.64571 4.23804 9.21162 6.04914 8.11423 7.37818Z" fill="white"/>
<path d="M9.42144 15.3575C9.53712 16.1194 9.77123 16.8908 10.112 17.6445C11.8821 17.3956 13.4841 16.6243 14.7576 15.4913L10.3581 11.0918C9.49861 12.1849 9.16638 13.678 9.42144 15.3575Z" fill="white"/>
<path d="M10.3539 9.61687C11.683 8.51944 13.4941 8.08539 15.5151 8.39226C16.2548 8.50458 17.0002 8.71534 17.7317 9.01587C17.7325 8.96548 17.7336 8.91512 17.7336 8.86448C17.7336 6.60295 16.8864 4.5396 15.4928 2.97327L9.60159 8.86452L10.3539 9.61687Z" fill="white"/>
</g>
<defs>
<clipPath id="clip0_1_2198">
<rect width="17.7335" height="17.7335" fill="white"/>
</clipPath>
</defs>
</svg>
