<svg preserveAspectRatio="none" width="100%" height="100%" overflow="visible" style="display: block;" viewBox="0 0 17.7337 17.7342" fill="none" xmlns="http://www.w3.org/2000/svg">
<g id="Group">
<path id="Vector" d="M8.31158 2.37526C8.19586 1.61327 7.96186 0.841936 7.62101 0.0882642C5.85099 0.337156 4.24889 1.10846 2.97544 2.24153L7.37486 6.64098C8.23441 5.54785 8.56664 4.05477 8.31158 2.37526V2.37526Z" fill="var(--fill-0, white)"/>
<path id="Vector_2" d="M7.37947 8.11385C6.32877 8.98141 4.97694 9.43465 3.45813 9.43468C3.05573 9.43468 2.64177 9.40289 2.21845 9.33864C1.47891 9.22632 0.733445 9.01563 0.00187033 8.71502C0.00107371 8.76542 0 8.81578 0 8.86638C0 11.1279 0.847154 13.1913 2.24079 14.7576L8.132 8.86638L7.37947 8.11385Z" fill="var(--fill-0, white)"/>
<path id="Vector_3" d="M6.64028 7.37416L2.24083 2.97474C1.10776 4.24819 0.336455 5.85026 0.0875629 7.62028C0.84127 7.96113 1.61264 8.1952 2.37452 8.31092C4.05414 8.56601 5.54718 8.23371 6.64028 7.37416V7.37416Z" fill="var(--fill-0, white)"/>
<path id="Vector_4" d="M15.359 9.42202C13.6795 9.16689 12.1864 9.49919 11.0933 10.3587L15.4927 14.7582C16.6258 13.4847 17.3971 11.8826 17.646 10.1126C16.8924 9.77181 16.121 9.53777 15.359 9.42202Z" fill="var(--fill-0, white)"/>
<path id="Vector_5" d="M9.61901 10.3545L8.86665 9.60216L2.97544 15.4934C4.54177 16.887 6.60512 17.7342 8.86665 17.7342C8.91725 17.7342 8.96761 17.7331 9.01801 17.7323C8.71744 17.0007 8.50672 16.2552 8.39439 15.5157C8.08752 13.4946 8.52161 11.6836 9.61901 10.3545V10.3545Z" fill="var(--fill-0, white)"/>
<path id="Vector_6" d="M8.11432 7.37965L8.86667 8.132L14.7579 2.24079C13.1916 0.847119 11.1282 0 8.86667 0C8.81607 0 8.76571 0.00107371 8.71531 0.00190496C9.01588 0.733445 9.22661 1.47884 9.33893 2.21848C9.6458 4.23951 9.21171 6.05061 8.11432 7.37965Z" fill="var(--fill-0, white)"/>
<path id="Vector_7" d="M9.42153 15.359C9.53721 16.1209 9.77131 16.8923 10.1121 17.646C11.8822 17.3971 13.4842 16.6258 14.7577 15.4927L10.3582 11.0933C9.4987 12.1864 9.16647 13.6795 9.42153 15.359Z" fill="var(--fill-0, white)"/>
<path id="Vector_8" d="M10.354 9.61834C11.6831 8.52091 13.4942 8.08686 15.5152 8.39373C16.2548 8.50605 17.0003 8.71681 17.7318 9.01735C17.7326 8.96695 17.7337 8.91659 17.7337 8.86595C17.7337 6.60442 16.8865 4.54107 15.4929 2.97474L9.60168 8.86599L10.354 9.61834Z" fill="var(--fill-0, white)"/>
</g>
</svg>
