<svg width="18" height="18" viewBox="0 0 18 18" fill="none" xmlns="http://www.w3.org/2000/svg">
<g clip-path="url(#clip0_1_2227)">
<path d="M12.1815 11.0156C13.8709 10.9857 14.2427 8.66165 12.6485 8.10815L10.8078 10.1044C11.0375 10.6452 11.579 11.0156 12.1815 11.0156Z" fill="white"/>
<path d="M17.6333 7.99954C17.3966 6.57977 16.7315 5.48393 15.6987 4.79968C15.2176 5.32182 13.8922 6.75871 13.392 7.30143C14.1968 7.73762 14.712 8.58228 14.712 9.52464C14.7176 11.7087 12.082 12.8686 10.4759 11.3938C10.3227 11.7326 10.1079 12.0444 9.83734 12.315C8.76488 13.4777 5.4429 13.7587 4.02485 13.7174C3.98342 12.2959 4.26564 8.97547 5.42734 7.90496C6.02009 7.31252 6.79338 7.00868 7.57187 6.99378C8.4238 6.20556 9.60521 5.11232 10.4537 4.32711C9.27514 4.63768 7.5489 5.45989 7.02239 4.68362C6.77599 4.10209 7.89618 2.75081 7.01234 1.61679C6.28801 0.707314 4.6669 0.878151 3.75081 1.52429C-0.709599 4.6039 -1.30602 11.3701 2.58786 15.1341C7.35467 19.9376 15.6699 17.7614 17.4968 11.2521C17.596 10.8424 17.8799 9.49935 17.6333 7.99954Z" fill="white"/>
<path d="M9.83737 7.90481C10.127 8.19445 10.3525 8.53086 10.5071 8.89706C11.097 8.25809 14.2121 4.87846 14.7293 4.31796L17.4951 1.31835C17.7972 0.990602 17.8051 0.505564 17.5134 0.213502C17.221 -0.0785599 16.7353 -0.0702449 16.4075 0.232904L12.3627 3.97635C11.4844 4.7889 9.73752 6.40615 8.84131 7.23546C9.2037 7.38721 9.54288 7.61033 9.83737 7.90481Z" fill="white"/>
<path d="M8.54759 8.24269C7.75847 7.85868 6.80219 8.00131 6.16225 8.63903C5.50128 9.22343 5.126 11.4475 5.08789 12.6538C6.29764 12.6144 8.51634 12.2413 9.10227 11.5794C9.49515 11.1865 9.71134 10.6644 9.71134 10.1094C9.71123 9.55361 9.4948 9.03146 9.10227 8.63938V8.63903C8.93597 8.47239 8.74819 8.34039 8.54759 8.24269Z" fill="white"/>
</g>
<defs>
<clipPath id="clip0_1_2227">
<rect width="17.7335" height="17.7335" fill="white"/>
</clipPath>
</defs>
</svg>
