<svg width="24" height="20" viewBox="0 0 24 20" fill="none" xmlns="http://www.w3.org/2000/svg">
<path d="M22.7998 16.7998C23.4625 16.7998 24 17.3373 24 18C24 18.6627 23.4625 19.2002 22.7998 19.2002H1.2002C0.537453 19.2002 0 18.6627 0 18C2.01003e-05 17.3373 0.537466 16.7998 1.2002 16.7998H22.7998ZM16.7998 8.40039C17.4624 8.40039 17.9998 8.93701 18 9.59961C18 10.2624 17.4625 10.7998 16.7998 10.7998H1.2002C0.537453 10.7998 0 10.2624 0 9.59961C0.000169536 8.93701 0.537558 8.40039 1.2002 8.40039H16.7998ZM22.7998 0C23.4625 0 24 0.537453 24 1.2002C23.9999 1.86285 23.4625 2.40039 22.7998 2.40039H1.2002C0.537519 2.40039 0.000105645 1.86285 0 1.2002C0 0.537453 0.537453 0 1.2002 0H22.7998Z" fill="white"/>
</svg>
