<svg width="23" height="23" viewBox="0 0 23 23" fill="none" xmlns="http://www.w3.org/2000/svg">
<path d="M9.43803 14.902C10.8177 14.7908 12.2039 14.7908 13.5835 14.902C14.3348 14.9458 15.0825 15.0397 15.8218 15.1832C17.4219 15.5072 18.4669 16.0358 18.9146 16.8883C19.2508 17.5537 19.2508 18.3459 18.9146 19.0114C18.4669 19.864 17.4634 20.4265 15.8052 20.7164C15.0664 20.8654 14.3186 20.9624 13.5669 21.0065C12.8705 21.0832 12.174 21.0836 11.4693 21.0836H10.2007C9.9356 21.0495 9.67879 21.0319 9.43022 21.0319C8.67847 20.9932 7.92964 20.8993 7.19096 20.7506C5.59115 20.4437 4.54684 19.898 4.09917 19.0455C3.92634 18.7153 3.83491 18.3464 3.83354 17.9713C3.82994 17.594 3.91812 17.2215 4.09038 16.8883C4.52975 16.0358 5.57451 15.4817 7.19096 15.1832C7.93283 15.0376 8.68386 14.9437 9.43803 14.902ZM11.5025 1.91663C14.2819 1.91663 16.5347 4.23415 16.5347 7.09241C16.5345 9.95047 14.2817 12.2672 11.5025 12.2672C8.72332 12.2671 6.47049 9.95042 6.47026 7.09241C6.47026 4.23419 8.72317 1.9167 11.5025 1.91663Z" fill="#2C3550"/>
</svg>
