<svg preserveAspectRatio="none" width="100%" height="100%" overflow="visible" style="display: block;" viewBox="0 0 16.2917 19.1643" fill="none" xmlns="http://www.w3.org/2000/svg">
<g id="Location">
<path id="Location_2" fill-rule="evenodd" clip-rule="evenodd" d="M8.17458 1.91221e-05C10.3404 0.00960245 12.4104 0.872102 13.9246 2.38627C15.4483 3.91002 16.3013 5.97044 16.2917 8.10752V8.15544C16.2342 11.0592 14.605 13.7329 12.5733 15.8221C11.4233 17.0009 10.1488 18.0454 8.75917 18.9271C8.38542 19.2434 7.83917 19.2434 7.46542 18.9271C5.405 17.5854 3.58417 15.8988 2.10833 13.9342C0.814583 12.2284 0.0766667 10.1775 0 8.04044C0.0191667 3.58419 3.68 -0.00956421 8.17458 1.91221e-05ZM8.17459 10.7909C8.855 10.7909 9.50667 10.5321 9.98584 10.0625C10.4842 9.57377 10.763 8.92306 10.763 8.24168C10.763 6.82335 9.6025 5.68293 8.17459 5.68293C6.74667 5.68293 5.59667 6.82335 5.59667 8.24168C5.59667 9.64181 6.7275 10.7717 8.14584 10.7909H8.17459Z" fill="var(--fill-0, #200E32)"/>
</g>
</svg>
