<svg preserveAspectRatio="none" width="100%" height="100%" overflow="visible" style="display: block;" viewBox="0 0 17.25 19.1667" fill="none" xmlns="http://www.w3.org/2000/svg">
<g id="Calendar">
<path id="Calendar_2" fill-rule="evenodd" clip-rule="evenodd" d="M12.8521 0.736592L12.853 1.45498C15.4929 1.66188 17.2367 3.46073 17.2396 6.21935L17.25 14.2941C17.2538 17.3017 15.3642 19.1523 12.3355 19.1571L4.93722 19.1667C1.92739 19.1705 0.0141992 17.2758 0.0104145 14.2596L6.37268e-06 6.27969C-0.00377838 3.50287 1.67855 1.70881 4.31841 1.46648L4.31747 0.748086C4.31652 0.32663 4.62876 0.00958071 5.04509 0.00958071C5.46141 0.00862285 5.77365 0.324715 5.7746 0.74617L5.77555 1.41667L11.3959 1.409L11.395 0.738507C11.394 0.317052 11.7063 0.000960025 12.1226 2.17109e-06C12.5294 -0.000955683 12.8511 0.315136 12.8521 0.736592ZM1.4581 6.57561L15.7834 6.55645V6.2212C15.7427 4.16182 14.7095 3.08136 12.8549 2.92044L12.8559 3.65799C12.8559 4.06986 12.5351 4.39649 12.1283 4.39649C11.712 4.39745 11.3988 4.07178 11.3988 3.6599L11.3978 2.88404L5.77745 2.8917L5.7784 3.66661C5.7784 4.07944 5.4671 4.40511 5.05078 4.40511C4.63446 4.40607 4.32127 4.08136 4.32127 3.66852L4.32032 2.93098C2.47525 3.11584 1.45431 4.20013 1.45715 6.27772L1.4581 6.57561ZM11.73 10.929V10.9396C11.7394 11.3802 12.099 11.7145 12.5352 11.7049C12.961 11.6944 13.3007 11.3294 13.2912 10.8888C13.2713 10.4673 12.9298 10.1235 12.5049 10.1244C12.0697 10.134 11.729 10.4884 11.73 10.929ZM12.5114 15.2298C12.0762 15.2202 11.7252 14.8572 11.7242 14.4166C11.7147 13.976 12.0639 13.611 12.4991 13.6005H12.5086C12.9533 13.6005 13.3138 13.9635 13.3138 14.4137C13.3147 14.8639 12.9552 15.2288 12.5114 15.2298ZM7.83161 10.9445C7.85053 11.3851 8.21103 11.7289 8.64628 11.7098C9.07206 11.6897 9.41175 11.3257 9.39282 10.8851C9.38241 10.454 9.03232 10.1188 8.60654 10.1198C8.17129 10.1389 7.83066 10.5039 7.83161 10.9445ZM8.65014 15.1868C8.21489 15.2059 7.85534 14.8621 7.83547 14.4215C7.83547 13.9808 8.17515 13.6169 8.6104 13.5968C9.03618 13.5958 9.38722 13.931 9.39668 14.3611C9.41655 14.8027 9.07592 15.1667 8.65014 15.1868ZM3.93335 10.9779C3.95227 11.4185 4.31277 11.7634 4.74802 11.7432C5.1738 11.7241 5.51349 11.3591 5.49362 10.9185C5.48415 10.4875 5.13406 10.1523 4.70733 10.1532C4.27209 10.1724 3.9324 10.5373 3.93335 10.9779ZM4.75176 15.1915C4.31652 15.2116 3.95696 14.8667 3.93709 14.4261C3.93615 13.9855 4.27678 13.6206 4.71202 13.6014C5.13781 13.6005 5.48884 13.9357 5.49831 14.3667C5.51818 14.8074 5.17849 15.1723 4.75176 15.1915Z" fill="var(--fill-0, #2C3550)"/>
</g>
</svg>
