<svg width="23" height="23" viewBox="0 0 23 23" fill="none" xmlns="http://www.w3.org/2000/svg">
<path fill-rule="evenodd" clip-rule="evenodd" d="M15.7271 2.65322L15.728 3.37161C18.3679 3.5785 20.1117 5.37735 20.1146 8.13597L20.125 16.2107C20.1288 19.2183 18.2392 21.0689 15.2105 21.0737L7.81222 21.0833C4.80239 21.0871 2.8892 19.1925 2.88541 16.1762L2.87501 8.19632C2.87122 5.4195 4.55355 3.62544 7.19341 3.3831L7.19247 2.66471C7.19152 2.24326 7.50376 1.92621 7.92009 1.92621C8.33641 1.92525 8.64865 2.24134 8.6496 2.6628L8.65055 3.33329L14.2709 3.32563L14.27 2.65513C14.269 2.23368 14.5813 1.91759 14.9976 1.91663C15.4044 1.91567 15.7261 2.23176 15.7271 2.65322ZM4.3331 8.49223L18.6584 8.47308V8.13783C18.6177 6.07844 17.5845 4.99799 15.7299 4.83707L15.7309 5.57461C15.7309 5.98649 15.4101 6.31312 15.0033 6.31312C14.587 6.31408 14.2738 5.98841 14.2738 5.57653L14.2728 4.80067L8.65245 4.80833L8.6534 5.58323C8.6534 5.99607 8.3421 6.32174 7.92578 6.32174C7.50946 6.3227 7.19627 5.99798 7.19627 5.58515L7.19532 4.8476C5.35025 5.03247 4.32931 6.11676 4.33215 8.19434L4.3331 8.49223ZM14.605 12.8457V12.8562C14.6144 13.2968 14.974 13.6311 15.4102 13.6215C15.836 13.611 16.1757 13.246 16.1662 12.8054C16.1463 12.384 15.8048 12.0401 15.3799 12.0411C14.9447 12.0506 14.604 12.405 14.605 12.8457ZM15.3864 17.1464C14.9512 17.1368 14.6002 16.7738 14.5992 16.3332C14.5897 15.8926 14.9389 15.5277 15.3741 15.5171H15.3836C15.8283 15.5171 16.1888 15.8801 16.1888 16.3303C16.1897 16.7805 15.8302 17.1455 15.3864 17.1464ZM10.7066 12.8611C10.7255 13.3017 11.086 13.6456 11.5213 13.6264C11.9471 13.6063 12.2867 13.2423 12.2678 12.8017C12.2574 12.3707 11.9073 12.0354 11.4815 12.0364C11.0463 12.0555 10.7057 12.4205 10.7066 12.8611ZM11.5251 17.1034C11.0899 17.1226 10.7303 16.7787 10.7105 16.3381C10.7105 15.8975 11.0501 15.5335 11.4854 15.5134C11.9112 15.5124 12.2622 15.8477 12.2717 16.2777C12.2916 16.7193 11.9509 17.0833 11.5251 17.1034ZM6.80835 12.8945C6.82727 13.3352 7.18777 13.68 7.62302 13.6599C8.0488 13.6407 8.38849 13.2758 8.36862 12.8352C8.35915 12.4041 8.00906 12.0689 7.58233 12.0698C7.14709 12.089 6.8074 12.4539 6.80835 12.8945ZM7.62676 17.1081C7.19152 17.1282 6.83196 16.7834 6.81209 16.3428C6.81115 15.9021 7.15178 15.5372 7.58702 15.518C8.01281 15.5171 8.36384 15.8523 8.37331 16.2834C8.39318 16.724 8.05349 17.0889 7.62676 17.1081Z" fill="#2C3550"/>
</svg>
