<svg preserveAspectRatio="none" width="100%" height="100%" overflow="visible" style="display: block;" viewBox="0 0 15.3333 19.167" fill="none" xmlns="http://www.w3.org/2000/svg">
<g id="Profile">
<path id="Profile_2" d="M5.6046 12.9854C6.98426 12.8742 8.37044 12.8742 9.75011 12.9854C10.5013 13.0291 11.249 13.1231 11.9884 13.2666C13.5884 13.5906 14.6334 14.1191 15.0812 14.9717C15.4174 15.6371 15.4174 16.4293 15.0812 17.0947C14.6335 17.9473 13.6299 18.5099 11.9718 18.7998C11.233 18.9488 10.4851 19.0458 9.7335 19.0898C9.0371 19.1666 8.34054 19.167 7.63585 19.167H6.36729C6.10216 19.1329 5.84536 19.1152 5.59679 19.1152C4.84504 19.0766 4.0962 18.9826 3.35753 18.834C1.75771 18.527 0.71341 17.9814 0.265731 17.1289C0.0929085 16.7986 0.00147326 16.4297 0.000106101 16.0547C-0.0034963 15.6773 0.0846853 15.3049 0.256942 14.9717C0.696315 14.1191 1.74107 13.565 3.35753 13.2666C4.0994 13.121 4.85043 13.0271 5.6046 12.9854ZM7.66905 0C10.4484 0 12.7013 2.31752 12.7013 5.17578C12.701 8.03384 10.4483 10.3506 7.66905 10.3506C4.88988 10.3505 2.63706 8.03379 2.63682 5.17578C2.63682 2.31757 4.88974 7.73032e-05 7.66905 0Z" fill="var(--fill-0, #2C3550)"/>
</g>
</svg>
